<?xml version="1.0" encoding="utf-8"?>
<!-- Generator: Adobe Illustrator 22.1.0, SVG Export Plug-In . SVG Version: 6.00 Build 0)  -->
<svg version="1.1" id="图层_1" xmlns="http://www.w3.org/2000/svg" xmlns:xlink="http://www.w3.org/1999/xlink" x="0px" y="0px"
	 viewBox="0 0 200 200" style="enable-background:new 0 0 200 200;" xml:space="preserve">
<style type="text/css">
	.st0{fill:#5871F8;}
</style>
<path class="st0" d="M83,166.3c-2.5,2.6-6.6,2.6-9.1,0l-2-2.1l0,0l-2.2-2.3l-9.5-9.9c0,0,0-0.1,0-0.1l-43.6-45.6
	c-2.5-2.6-2.5-6.9,0-9.5l18.3-18.8c2.5-2.6,6.6-2.6,9.1,0l34.9,36.7l77.7-80.9c2.5-2.6,6.6-2.6,9.1,0l18,18.5c2.5,2.6,2.5,6.9,0,9.5
	L83,166.3z"/>
</svg>
